<svg xmlns="http://www.w3.org/2000/svg" viewBox="0 0 800 520" role="img" aria-labelledby="title desc">
  <title id="title">Professional solar panel maintenance</title><desc id="desc">A technician inspects a rooftop solar panel system.</desc>
  <defs><linearGradient id="sky" x1="0" y1="0" x2="0" y2="1"><stop stop-color="#68c8ed"/><stop offset="1" stop-color="#e9f9ff"/></linearGradient><linearGradient id="panel" x1="0" y1="0" x2="1" y2="1"><stop stop-color="#2874a7"/><stop offset="1" stop-color="#123654"/></linearGradient></defs>
  <rect width="800" height="520" fill="url(#sky)"/><circle cx="675" cy="86" r="49" fill="#ffb800"/><path d="M0 397 193 315l181 54 155-74 271 85v140H0z" fill="#b5d69f"/>
  <g transform="translate(80 275) skewY(-20)"><rect width="420" height="190" rx="7" fill="url(#panel)" stroke="#d4eff9" stroke-width="7"/><g stroke="#9ccae0" stroke-width="4"><path d="M70 0v190M140 0v190M210 0v190M280 0v190M350 0v190M0 63h420M0 126h420"/></g></g>
  <g transform="translate(470 205)"><circle cx="86" cy="43" r="31" fill="#a86642"/><path d="M52 44c5-48 65-55 71-2l-8 17H60z" fill="#fff"/><path d="M43 91c21-30 64-30 87 0l29 118H17z" fill="#f3a923"/><path d="M53 95 20 160M120 95l48 50" fill="none" stroke="#a86642" stroke-width="20" stroke-linecap="round"/><path d="m162 132 36 30-23 24-39-33z" fill="#536879"/><path d="M50 207 28 298M127 207l34 91" stroke="#18324c" stroke-width="27" stroke-linecap="round"/><path d="M10 308h44M144 308h46" stroke="#263b47" stroke-width="15" stroke-linecap="round"/>
  <g transform="translate(159 184)"><circle r="39" fill="#fff" stroke="#ffb800" stroke-width="14"/><path d="M-16 0 1 17 23-19" fill="none" stroke="#22a06b" stroke-width="13" stroke-linecap="round" stroke-linejoin="round"/></g></g>
</svg>
