<svg xmlns="http://www.w3.org/2000/svg" viewBox="0 0 800 520" role="img" aria-labelledby="title desc">
  <title id="title">Home solar panels delivering energy savings</title><desc id="desc">A sunny home rooftop with solar panels and a savings chart.</desc>
  <defs><linearGradient id="sky" x1="0" y1="0" x2="0" y2="1"><stop stop-color="#60c7f2"/><stop offset="1" stop-color="#e8f8ff"/></linearGradient><linearGradient id="panel" x1="0" y1="0" x2="1" y2="1"><stop stop-color="#26598c"/><stop offset="1" stop-color="#102e52"/></linearGradient></defs>
  <rect width="800" height="520" fill="url(#sky)"/><circle cx="670" cy="85" r="47" fill="#ffb800"/><g stroke="#ffcf42" stroke-width="8" stroke-linecap="round"><path d="M670 18v-15M670 167v-15M603 85h-15M752 85h-15M622 37l-11-11M718 133l-11-11M718 37l11-11M622 133l-11 11"/></g>
  <path d="M0 362 180 275l160 87 143-116 317 142v132H0z" fill="#b9d7bd"/><path d="M65 341 319 216l253 125v179H65z" fill="#fff6e6"/><path d="M35 342 319 190l283 152-27 29-256-129L65 370z" fill="#b44b36"/><rect x="277" y="365" width="82" height="155" rx="5" fill="#263f54"/><rect x="112" y="371" width="100" height="71" rx="5" fill="#82cff0"/>
  <g transform="translate(388 250) skewY(-25)"><rect width="206" height="118" rx="5" fill="url(#panel)" stroke="#d4edf9" stroke-width="5"/><g stroke="#9bc5da" stroke-width="3"><path d="M52 0v118M103 0v118M154 0v118M0 39h206M0 78h206"/></g></g>
  <g transform="translate(595 328)"><rect width="145" height="130" rx="14" fill="#fff" stroke="#dce7ed" stroke-width="4"/><path d="M625 414v-38M658 414v-63M691 414v-91" stroke="#22a06b" stroke-width="17" stroke-linecap="round"/><path d="m616 355 42-27 34 12 32-34" fill="none" stroke="#ffb800" stroke-width="8" stroke-linecap="round" stroke-linejoin="round"/><text x="668" y="442" text-anchor="middle" fill="#17324d" font-family="Arial, sans-serif" font-size="20" font-weight="bold">SAVINGS</text></g>
</svg>
