<svg xmlns="http://www.w3.org/2000/svg" viewBox="0 0 800 520" role="img" aria-labelledby="title desc">
  <title id="title">Storm-resistant solar panel structure</title><desc id="desc">Solar panels remain firmly mounted through heavy rain and wind.</desc>
  <defs><linearGradient id="sky" x1="0" y1="0" x2="0" y2="1"><stop stop-color="#18375c"/><stop offset="1" stop-color="#668bad"/></linearGradient><linearGradient id="panel" x1="0" y1="0" x2="1" y2="1"><stop stop-color="#3f87bd"/><stop offset="1" stop-color="#102942"/></linearGradient></defs>
  <rect width="800" height="520" fill="url(#sky)"/><g fill="#9db6c8" opacity=".9"><ellipse cx="165" cy="115" rx="115" ry="51"/><ellipse cx="280" cy="101" rx="105" ry="66"/><ellipse cx="475" cy="89" rx="140" ry="62"/><ellipse cx="615" cy="120" rx="118" ry="55"/></g><path d="m525 128-55 115h58l-39 91 102-137h-61z" fill="#ffcc37"/>
  <g stroke="#b7dbeb" stroke-width="7" stroke-linecap="round" opacity=".72"><path d="m76 175-30 38M165 183l-30 39M272 161l-30 39M370 178l-30 39M652 178l-30 39M739 163l-30 39M110 254l-30 39M222 266l-30 39M650 268l-30 39"/></g>
  <path d="M0 382 188 322l180 52 168-89 264 84v151H0z" fill="#344b53"/><path d="M67 370 343 250l292 124v146H67z" fill="#eef0e7"/><path d="M35 370 342 218l326 154-34 34-292-141L68 405z" fill="#5d2930"/>
  <g transform="translate(250 250) skewY(-25)"><rect width="290" height="148" rx="6" fill="url(#panel)" stroke="#c4e1ef" stroke-width="6"/><g stroke="#a3cadd" stroke-width="3"><path d="M58 0v148M116 0v148M174 0v148M232 0v148M0 49h290M0 98h290"/></g></g><g stroke="#adb9bd" stroke-width="14" stroke-linecap="round"><path d="m286 391 20 71M464 391l-20 71"/></g><path d="M482 412c48 8 83-23 90-61" fill="none" stroke="#34c98c" stroke-width="12" stroke-linecap="round"/><path d="m556 346 20 4-8 20" fill="none" stroke="#34c98c" stroke-width="12" stroke-linecap="round" stroke-linejoin="round"/>
</svg>
